# xmcd
#
# Track frame offsets:
#	150
#	12752
#	26602
#	44485
#	62895
#	74180
#	86330
#	99207
#	115810
#	131307
#	145355
#
# Disc length: 2122 seconds
#
# Revision: 1
# Processed by: cddbd v1.5.1PL2 Copyright (c) Steve Scherf et al.
# Submitted via: audiograbber 1.83.01
#
DISCID=9408480b
DTITLE=Cody Bryant - Big Dose Of Country
DYEAR=1996
DGENRE=Country
TTITLE0=I Don't Want To Go Home Tonight
TTITLE1=Steppin' Stone
TTITLE2=Bed Of Roses
TTITLE3=Too Far Under
TTITLE4=Good Ol' Boy
TTITLE5=Big Iron
TTITLE6=I Owe It All To You
TTITLE7=Haul Off And Love Me
TTITLE8=Tell Me I'm Not Losing You
TTITLE9=Big Dose Of Country
TTITLE10=Ready For A Good Time
EXTD=
EXTT0=
EXTT1=
EXTT2=
EXTT3=
EXTT4=
EXTT5=
EXTT6=
EXTT7=
EXTT8=
EXTT9=
EXTT10=
PLAYORDER=
